<svg width="1512" height="545" viewBox="0 0 1512 545" fill="none" xmlns="http://www.w3.org/2000/svg">
<path d="M45.7375 540.649C32.6696 540.649 22.9897 538.471 16.6978 534.115C10.4059 530.243 6.53393 525.161 5.08194 518.869C3.62996 512.093 2.90397 504.591 2.90397 496.363V226.294C2.90397 218.55 3.62996 211.533 5.08194 205.241C7.01792 198.465 10.8899 193.141 16.6978 189.269C22.9897 185.397 32.9116 183.461 46.4635 183.461C60.0153 183.461 69.6952 185.397 75.5032 189.269C81.7951 193.141 85.667 198.465 87.119 205.241C88.571 212.017 89.297 219.518 89.297 227.746V497.089C89.297 505.317 88.571 512.819 87.119 519.595C85.667 525.887 81.7951 530.969 75.5032 534.841C69.6952 538.713 59.7733 540.649 45.7375 540.649ZM45.7375 113.04C31.7016 113.04 21.2958 111.104 14.5198 107.232C8.22791 102.876 4.11395 97.0678 2.17797 89.8079C0.725992 82.5479 0 74.562 0 65.8501C0 56.6542 0.725992 48.6683 2.17797 41.8924C4.11395 35.1165 8.4699 29.7925 15.2458 25.9206C22.0218 21.5646 32.4276 19.3867 46.4635 19.3867C60.9833 19.3867 71.3892 21.5646 77.6811 25.9206C83.9731 30.2765 88.087 36.0845 90.023 43.3444C91.959 50.1203 92.927 58.1062 92.927 67.3021C92.927 75.53 91.959 83.274 90.023 90.5339C88.087 97.7938 83.9731 103.36 77.6811 107.232C71.3892 111.104 60.7413 113.04 45.7375 113.04Z" fill="#FF4A79"/>
<path d="M453.308 462.242C465.892 472.89 472.426 482.811 472.91 492.007C473.878 501.203 469.038 511.851 458.39 523.951C450.162 533.147 442.902 539.197 436.61 542.101C430.318 545.005 424.027 545.005 417.735 542.101C411.443 539.681 403.941 534.841 395.229 527.581L256.564 410.696V497.089C256.564 504.833 255.596 512.093 253.66 518.869C252.208 525.645 248.336 530.969 242.045 534.841C236.237 538.713 226.557 540.649 213.005 540.649C199.453 540.649 189.531 538.471 183.239 534.115C177.431 530.243 173.801 524.919 172.349 518.143C170.897 511.367 170.171 504.107 170.171 496.363V62.9462C170.171 54.7183 170.897 47.4583 172.349 41.1664C174.285 34.3905 178.157 29.0665 183.965 25.1946C190.257 20.8386 200.179 18.6606 213.731 18.6606C227.283 18.6606 236.963 20.8386 242.771 25.1946C248.579 29.0665 252.208 34.3905 253.66 41.1664C255.596 47.4583 256.564 54.9603 256.564 63.6722V301.798L356.751 204.515C364.495 197.255 371.755 192.415 378.531 189.995C385.307 187.091 391.841 186.849 398.133 189.269C404.909 191.205 411.927 196.287 419.187 204.515C431.286 217.582 437.094 228.472 436.61 237.184C436.126 245.412 430.076 255.334 418.461 266.95L320.452 357.699L453.308 462.242Z" fill="#FF4A79"/>
<path d="M674.588 545.005C651.357 545.005 628.609 540.649 606.345 531.937C584.565 522.741 564.722 509.915 546.814 493.459C529.39 477.004 515.354 457.644 504.706 435.38C494.542 413.116 489.46 388.675 489.46 362.055C489.46 336.403 494.3 312.445 503.98 290.182C513.66 267.918 526.97 248.316 543.91 231.376C560.85 214.436 580.209 201.369 601.989 192.173C624.253 182.493 647.969 177.653 673.136 177.653C707.016 177.653 737.75 185.881 765.337 202.337C792.925 218.308 814.947 240.088 831.403 267.676C847.858 295.264 856.086 326.481 856.086 361.329C856.086 388.917 851.004 414.084 840.84 436.832C830.677 459.096 816.883 478.456 799.459 494.911C782.035 510.883 762.433 523.225 740.654 531.937C719.358 540.649 697.336 545.005 674.588 545.005ZM673.136 459.338C689.108 459.338 704.354 455.466 718.874 447.722C733.878 439.494 745.977 427.878 755.173 412.874C764.853 397.87 769.693 380.205 769.693 359.877C769.693 341.001 765.337 324.303 756.625 309.783C748.397 295.264 737.024 283.89 722.504 275.662C707.984 267.434 691.286 263.32 672.41 263.32C654.502 263.32 638.289 267.676 623.769 276.388C609.249 284.616 597.633 296.232 588.921 311.235C580.693 325.755 576.579 342.211 576.579 360.603C576.579 380.931 581.177 398.596 590.373 413.6C599.569 428.12 611.427 439.494 625.947 447.722C640.951 455.466 656.68 459.338 673.136 459.338Z" fill="#FF4A79"/>
<path d="M1061.25 539.923C1038.98 539.923 1018.41 536.051 999.538 528.307C981.146 520.079 964.932 508.463 950.896 493.459C936.86 478.456 925.97 460.548 918.227 439.736C910.483 418.924 906.611 395.934 906.611 370.767V226.294C906.611 218.066 907.337 210.807 908.789 204.515C910.241 197.739 914.113 192.415 920.405 188.543C926.696 184.671 936.376 182.735 949.444 182.735C963.48 182.735 973.402 184.671 979.21 188.543C985.502 192.415 989.374 197.739 990.826 204.515C992.278 211.291 993.004 218.792 993.004 227.02V370.767C993.004 388.191 995.908 403.194 1001.72 415.778C1008.01 428.362 1016.96 438.284 1028.58 445.544C1040.19 452.32 1054.47 455.708 1071.41 455.708C1088.83 455.708 1103.6 452.32 1115.7 445.544C1128.28 438.284 1137.96 428.362 1144.74 415.778C1151.51 402.71 1154.9 387.707 1154.9 370.767V225.568C1154.9 217.34 1155.63 210.081 1157.08 203.789C1158.53 197.013 1162.4 191.931 1168.69 188.543C1174.99 184.671 1184.91 182.735 1198.46 182.735C1212.01 182.735 1221.69 184.671 1227.5 188.543C1233.31 192.415 1236.94 197.739 1238.39 204.515C1240.32 211.291 1241.29 218.55 1241.29 226.294V498.541C1241.29 505.801 1240.32 512.577 1238.39 518.869C1236.94 525.161 1233.06 530.243 1226.77 534.115C1220.97 537.987 1211.29 539.923 1197.73 539.923C1188.05 539.923 1180.31 538.713 1174.5 536.293C1169.18 534.357 1165.06 531.695 1162.16 528.307C1159.74 524.435 1158.05 520.563 1157.08 516.691C1156.59 512.819 1156.35 508.947 1156.35 505.075L1162.16 485.473C1159.26 489.829 1154.9 495.153 1149.09 501.445C1143.28 507.253 1136.02 513.303 1127.31 519.595C1119.08 525.403 1109.4 530.243 1098.27 534.115C1087.14 537.987 1074.8 539.923 1061.25 539.923Z" fill="#FF4A79"/>
<path d="M45.872 114.517C31.8224 114.517 21.4064 112.547 14.6239 108.608C8.32579 104.176 4.20781 98.2665 2.26995 90.88C0.816544 83.4934 0.0898438 75.3682 0.0898438 66.5043C0.0898438 57.148 0.816544 49.0228 2.26995 42.1287C4.20781 35.2346 8.56802 29.8178 15.3506 25.8783C22.1331 21.4464 32.5492 19.2305 46.5987 19.2305C61.1327 19.2305 71.5488 21.4464 77.8468 25.8783C84.1449 30.3103 88.2629 36.2195 90.2007 43.6061C92.1386 50.5002 93.1076 58.6254 93.1076 67.9817C93.1076 76.3531 92.1386 84.2321 90.2007 91.6186C88.2629 99.0052 84.1449 104.668 77.8468 108.608C71.5488 112.547 60.8905 114.517 45.872 114.517Z" fill="black"/>
<circle cx="1401.47" cy="110.333" r="18.3889" fill="black"/>
<path d="M1473.73 305.991C1474.6 308.089 1475.04 310.341 1475.02 312.611C1475.02 332.839 1442.11 349.389 1401.47 349.389C1360.83 349.389 1327.91 332.839 1327.91 312.611C1327.89 310.341 1328.33 308.089 1329.2 305.991" stroke="black" stroke-width="36.7778" stroke-linecap="round" stroke-linejoin="round"/>
<path d="M1493.41 110.333C1493.41 85.9482 1483.72 62.5618 1466.48 45.3188C1449.24 28.0759 1425.85 18.3889 1401.47 18.3889C1377.08 18.3889 1353.69 28.0759 1336.45 45.3188C1319.21 62.5618 1309.52 85.9482 1309.52 110.333C1309.52 183.889 1401.47 275.833 1401.47 275.833C1401.47 275.833 1493.41 183.889 1493.41 110.333Z" stroke="#FF4A79" stroke-width="36.7778" stroke-linecap="round" stroke-linejoin="round"/>
</svg>
